<svg width="512" height="512" xmlns="http://www.w3.org/2000/svg">

 <g>
  <title>background</title>
  <rect fill="none" id="canvas_background" height="402" width="582" y="-1" x="-1"/>
 </g>
 <g>
  <title>Layer 1</title>
  <path fill="#131b23" id="svg_2" d="m399.4,250.7c-1,25.1 -8.4,46.7 -22.1,64.8c-13.7,18.2 -34.1,27.2 -61.4,27.2c-9,0 -16.7,-2.5 -23.3,-7.6c-6.5,-5.1 -11.2,-12.1 -14,-21.2c-5.1,9.4 -11.3,16.5 -18.9,21.2c-7.5,4.7 -16.3,7.1 -26.5,7.1c-16.2,0 -28.6,-6.8 -37.3,-20.5c-8.7,-13.7 -11.9,-31.8 -9.6,-54.3c2.9,-29.2 11.1,-52.6 24.7,-70.2c13.6,-17.6 30.1,-26.4 49.6,-26.4c13.3,0 24,1.5 32.1,4.5c2.6,0.9 5.1,2 7.5,3.1c2.7,1.3 5.4,2.6 8,4c2.9,1.6 5.7,3.2 8.4,4.9c0.6,0.4 1.1,0.7 1.7,1.1c0.3,0.2 0.6,0.3 0.9,0.6c0.4,0.3 0.5,0.6 0.5,1c0,0.3 -0.1,0.6 -0.1,0.9c0,0.5 -0.1,1.1 -0.1,1.6c-0.1,0.7 -0.1,1.4 -0.2,2.2c-0.1,0.9 -0.2,1.8 -0.2,2.7c-0.1,1.1 -0.2,2.1 -0.3,3.2c-0.1,1.2 -0.2,2.4 -0.3,3.6c-0.1,1.3 -0.2,2.6 -0.4,4c-0.1,1.4 -0.3,2.9 -0.4,4.3c-0.1,1.5 -0.3,3 -0.4,4.6c-0.1,1.6 -0.3,3.2 -0.4,4.8c-0.1,1.7 -0.3,3.3 -0.4,5c-0.2,1.7 -0.3,3.4 -0.5,5.1c-0.2,1.7 -0.3,3.4 -0.5,5.2c-0.2,1.7 -0.3,3.5 -0.5,5.2c-0.2,1.7 -0.3,3.4 -0.5,5.2c-0.2,1.7 -0.3,3.4 -0.5,5.1c-0.1,1.6 -0.3,3.3 -0.4,4.9c-0.1,1.6 -0.3,3.2 -0.4,4.8c-0.1,1.5 -0.3,3 -0.4,4.5c-0.1,1.4 -0.3,2.8 -0.4,4.2c-0.1,1.3 -0.2,2.6 -0.3,3.9c-0.1,1.2 -0.2,2.3 -0.3,3.5c-0.1,1 -0.2,2.1 -0.3,3.1c-0.1,0.9 -0.2,1.7 -0.2,2.6c-0.1,0.7 -0.1,1.4 -0.2,2.1c0,0.5 -0.1,1 -0.1,1.5c0,0.3 0,0.5 -0.1,0.8c0,0.1 0,0.1 0,0.2c-0.8,10.9 0,18.4 2.4,22.4c2.4,4 5.7,6 9.8,6c13.2,0 23.8,-6.3 31.8,-18.8c8,-12.5 12.4,-28.4 13.4,-47.6c1.8,-40.6 -6,-72.2 -23.5,-95c-17.5,-22.8 -44.6,-34.1 -81.3,-34.1c-34.8,0 -62.6,12.2 -83.4,36.7c-20.8,24.5 -32.1,57.3 -33.8,98.4c-2,40.8 6.4,73 25.2,96.5c18.7,23.6 45.7,35.3 80.8,35.3c9.8,0 19.8,-1.2 30.3,-3.4c10.4,-2.3 19.3,-5.2 26.8,-8.6l6.5,25.3c-7.7,4.8 -17.5,8.6 -29.4,11.3c-11.9,2.7 -23.5,4.1 -34.9,4.1c-45.5,0 -80.6,-14.3 -105.2,-42.9c-24.6,-28.6 -36,-67.8 -34,-117.6c2.1,-49.1 16.7,-88.3 44,-117.8c27.3,-29.5 63.2,-44.2 107.8,-44.2c44.5,0 78.5,13.9 102.2,41.8c23.9,27.8 34.9,65.9 33,114.1zm-174.1,16.8c-1.2,14.6 -0.1,25.7 3.2,33.2c3.3,7.5 8.6,11.3 15.9,11.3c6.4,0 12.3,-1.5 17.5,-4.5c5.2,-3 9.9,-8.5 14,-16.5c0,-0.5 0,-0.8 0,-1.1c0,-0.3 0.1,-0.7 0.2,-1.1l7.6,-85.5c-2.6,-0.8 -5.3,-1.4 -7.9,-1.9c-2.6,-0.5 -5.4,-0.7 -8.3,-0.7c-12.8,0 -22.5,5.5 -29.1,16.6c-6.6,11 -11,27.8 -13.1,50.2z"/>
  <path fill="#364b60" id="XMLID_3_" d="m248.7,223.4c-5.7,9.5 -9.5,24.6 -11.4,45.1c-1.2,15.6 0.5,23.5 2.2,27.4c1.8,4.1 3.3,4.1 4.9,4.1c4.4,0 8.1,-0.9 11.5,-2.9c1.9,-1.1 4.9,-3.7 8.2,-9.5c0,-0.2 0.1,-0.5 0.1,-0.7l6.6,-74.2c-1.1,-0.1 -2.2,-0.1 -3.3,-0.1c-8.5,0 -14.3,3.3 -18.8,10.8z"/>
  <path fill="#2c3e50" id="svg_4" d="m256,6c-138.1,0 -250,111.9 -250,250s111.9,250 250,250s250,-111.9 250,-250s-111.9,-250 -250,-250zm155.4,245.2c-1.1,27.5 -9.4,51.5 -24.5,71.6c-16,21.2 -39.9,32 -71,32c-11.6,0 -21.9,-3.4 -30.6,-10.1c-3.1,-2.4 -5.8,-5.1 -8.3,-8.1c-3.3,3.4 -7,6.4 -10.9,8.8c-9.4,5.9 -20.5,8.9 -32.8,8.9c-20.2,0 -36.6,-9 -47.5,-26.1c-10.1,-15.9 -13.9,-36.8 -11.4,-61.9c3.1,-31.3 12.2,-57 27.2,-76.3c15.9,-20.6 35.8,-31 59,-31c14.9,0 26.8,1.7 36.3,5.2c2.7,1 5.5,2.2 8.4,3.5c2.8,1.3 5.8,2.8 8.7,4.4c2.9,1.6 5.9,3.4 9,5.3c0.6,0.4 1.2,0.7 1.8,1.1c0.4,0.2 1,0.6 1.8,1.2c3.6,2.8 5.5,7.1 5.1,11.6l-8.8,98.4c-0.9,12 0.7,15.2 0.8,15.3c0,0.1 0.1,0.1 0.1,0.2c8.8,-0.2 15.5,-4.4 21.1,-13.2c6.8,-10.7 10.7,-24.7 11.5,-41.7c1.7,-37.4 -5.4,-66.7 -21,-87.1c-15.3,-19.8 -38.7,-29.5 -71.8,-29.5c-31.4,0 -55.7,10.6 -74.3,32.5c-18.9,22.3 -29.3,52.9 -30.9,91.2c-1.8,37.7 5.8,67.5 22.6,88.6c16.5,20.7 39.9,30.8 71.5,30.8c8.8,0 18.2,-1.1 27.7,-3.2c9.5,-2.1 17.7,-4.7 24.4,-7.8l13,-6l12.3,47.8l-7.4,4.7c-8.8,5.5 -19.9,9.8 -33.1,12.8c-12.7,2.9 -25.4,4.3 -37.6,4.3c-48.9,0 -87.4,-15.8 -114.3,-47.1c-26.6,-30.9 -39,-73.2 -36.9,-125.9c2.2,-51.8 18.1,-94 47.2,-125.5c29.5,-31.9 68.8,-48.1 116.6,-48.1c47.9,0 85.4,15.5 111.4,46c25.6,30.1 37.6,71.3 35.6,122.4z"/>
 </g>
</svg>