<svg width="512" height="512" xmlns="http://www.w3.org/2000/svg">

 <g>
  <title>background</title>
  <rect fill="none" id="canvas_background" height="402" width="582" y="-1" x="-1"/>
 </g>
 <g>
  <title>Layer 1</title>
  <path fill="#2c3e50" id="XMLID_6_" d="m12.49529,188.8c5,69.9 178.9,285.9 246,305.7c31.5,9.3 64.7,14 97.3,10c22.6,-2.8 50,-12.1 71,-27.1l-115.4,-142c-6.4,5.4 -11.2,12.4 -13,20.7c-2.6,11.7 -0.3,26.5 -10,33.6c-7,5.1 -16.7,3.2 -25,0.7c-40.7,-12.4 -144.7,-141.7 -148.1,-184.1c-0.7,-8.6 -0.5,-18.5 6,-24.3c9,-8 22.9,-2.5 34.9,-2.6c8.1,0 15.7,-3 22.2,-7.7l-115.2,-141.8c-18.2,17.2 -32.3,41 -39.6,61.7c-11,31 -13.4,64.5 -11.1,97.2z"/>
  <path fill="#15202b" id="XMLID_5_" d="m191.4,79.1c-8.4,-22.8 -19.9,-45.6 -39.5,-60.1c-27.6,-20.4 -55,-14.6 -77.7,2.5l114.7,141.2c5.2,-6.5 9,-14.4 10.8,-22.5c4.4,-20.4 -1.1,-41.6 -8.3,-61.1z"/>
  <path fill="#15202b" id="XMLID_4_" d="m347,323.1c-8,0 -16.1,1.9 -23.4,5.3l114.4,140.9c20.2,-18.4 30.6,-43.3 17,-73.6c-10,-22.2 -29.8,-38.3 -50.3,-51.4c-17.4,-11.2 -36.9,-21.2 -57.7,-21.2z"/>
  <path fill="#15202b" id="XMLID_3_" d="m325.50471,12.29529c-0.7,-0.1 -1.3,-0.1 -2,-0.2l-4.1,39.8c0.7,0.1 1.3,0.1 2,0.2c84.9,8.8 146.9,85 138.1,169.9l39.7,4.1c11.1,-107 -66.7,-202.7 -173.7,-213.8z"/>
  <path fill="#15202b" id="XMLID_2_" d="m316.3,92.8c-0.7,-0.1 -1.3,-0.1 -2,-0.2l-4.1,39.7c0.7,0.1 1.3,0.1 2,0.2c41.1,4.2 71.1,41.1 66.8,82.2l39.7,4.1c6.6,-62.9 -39.4,-119.5 -102.4,-126z"/>
  <path fill="#15202b" id="XMLID_1_" d="m269.7,203.5c-2,19.2 12,36.4 31.2,38.4c19.2,2 36.4,-12 38.4,-31.2c2,-19.2 -12,-36.4 -31.2,-38.4c-19.2,-2 -36.4,12 -38.4,31.2z"/>
 </g>
</svg>