<svg width="64" height="64" xmlns="http://www.w3.org/2000/svg">
 <title/>

 <desc/>
 <g>
  <title>background</title>
  <rect fill="none" id="canvas_background" height="402" width="582" y="-1" x="-1"/>
 </g>
 <g>
  <title>Layer 1</title>
  <path id="Rectangle" fill-rule="nonzero" fill="#34495e" d="m22,8c4.41828,0 8,3.58172 8,8l0,6c0,4.41828 -3.58172,8 -8,8l-6,0c-4.41828,0 -8,-3.58172 -8,-8l0,-6c0,-4.41828 3.58172,-8 8,-8l6,0zm0,5l-6,0c-1.59768,0 -2.90366,1.24892 -2.99491,2.82373l-0.00509,0.17627l0,6c0,1.59768 1.24892,2.90366 2.82373,2.99491l0.17627,0.00509l6,0c1.59768,0 2.90366,-1.24892 2.99491,-2.82373l0.00509,-0.17627l0,-6c0,-1.59768 -1.24892,-2.90366 -2.82373,-2.99491l-0.17627,-0.00509z"/>
  <path id="Rectangle" fill-rule="nonzero" fill="#34495e" d="m48,8c4.41828,0 8,3.58172 8,8l0,6c0,4.41828 -3.58172,8 -8,8l-6,0c-4.41828,0 -8,-3.58172 -8,-8l0,-6c0,-4.41828 3.58172,-8 8,-8l6,0zm0,5l-6,0c-1.59768,0 -2.90366,1.24892 -2.99491,2.82373l-0.00509,0.17627l0,6c0,1.59768 1.24892,2.90366 2.82373,2.99491l0.17627,0.00509l6,0c1.59768,0 2.90366,-1.24892 2.99491,-2.82373l0.00509,-0.17627l0,-6c0,-1.59768 -1.24892,-2.90366 -2.82373,-2.99491l-0.17627,-0.00509z"/>
  <path id="Rectangle" fill-rule="nonzero" fill="#34495e" d="m22,34c4.41828,0 8,3.58172 8,8l0,6c0,4.41828 -3.58172,8 -8,8l-6,0c-4.41828,0 -8,-3.58172 -8,-8l0,-6c0,-4.41828 3.58172,-8 8,-8l6,0zm0,5l-6,0c-1.59768,0 -2.90366,1.24892 -2.99491,2.82373l-0.00509,0.17627l0,6c0,1.59768 1.24892,2.90366 2.82373,2.99491l0.17627,0.00509l6,0c1.59768,0 2.90366,-1.24892 2.99491,-2.82373l0.00509,-0.17627l0,-6c0,-1.59768 -1.24892,-2.90366 -2.82373,-2.99491l-0.17627,-0.00509z"/>
  <path id="Rectangle" fill-rule="nonzero" fill="#34495e" d="m48,34c4.41828,0 8,3.58172 8,8l0,6c0,4.41828 -3.58172,8 -8,8l-6,0c-4.41828,0 -8,-3.58172 -8,-8l0,-6c0,-4.41828 3.58172,-8 8,-8l6,0zm0,5l-6,0c-1.59768,0 -2.90366,1.24892 -2.99491,2.82373l-0.00509,0.17627l0,6c0,1.59768 1.24892,2.90366 2.82373,2.99491l0.17627,0.00509l6,0c1.59768,0 2.90366,-1.24892 2.99491,-2.82373l0.00509,-0.17627l0,-6c0,-1.59768 -1.24892,-2.90366 -2.82373,-2.99491l-0.17627,-0.00509z"/>
 </g>
</svg>