<?xml version="1.0" ?><!DOCTYPE svg  PUBLIC '-//W3C//DTD SVG 1.1//EN'  'http://www.w3.org/Graphics/SVG/1.1/DTD/svg11.dtd'><svg enable-background="new 0 0 24 24" height="24px" id="Layer_1" version="1.1" viewBox="0 0 24 24" width="24px" xml:space="preserve" xmlns="http://www.w3.org/2000/svg" xmlns:xlink="http://www.w3.org/1999/xlink"><g><path d="M15.8,13.5l-0.8-0.4l-1.3,1.3l1.3,1.3l0.8-0.5c0.3-0.2,0.5-0.5,0.5-0.8S16.1,13.7,15.8,13.5z"/><path d="M9,19.1c0,0,0.1,0,0.1,0l5-2.9l-1.1-1.1L9,19.1z"/><path d="M7.9,9.9c-0.1,0.2-0.2,0.4-0.2,0.6v7.8c0,0.2,0.1,0.4,0.2,0.6l4.5-4.5L7.9,9.9z"/><path d="M14.2,12.6L9.1,9.7C9,9.6,9,9.6,8.9,9.6l4.2,4.2L14.2,12.6z"/><path d="M21.5,5.3h-3.2c-0.4-2.7-2.8-4.7-5.5-4.7h-1.5c-2.8,0-5.1,2.1-5.5,4.7H2.5c-1.1,0-2,0.9-2,2v14.1c0,1.1,0.9,2,2,2h19   c1.1,0,2-0.9,2-2V7.3C23.5,6.2,22.6,5.3,21.5,5.3z M11.2,1.6h1.5c2.3,0,4.2,1.6,4.6,3.8H6.7C7.1,3.2,9,1.6,11.2,1.6z M16.3,16   l-6.7,3.9c-0.3,0.2-0.6,0.3-1,0.3c-0.3,0-0.6-0.1-0.8-0.2c0,0-0.1,0-0.1,0c0,0,0,0,0,0c-0.6-0.3-1-1-1-1.7v-7.8   c0-0.7,0.4-1.3,1-1.7c0.6-0.3,1.3-0.3,1.9,0l6.7,3.9c0.6,0.3,1,1,1,1.7C17.3,15,16.9,15.7,16.3,16z"/></g></svg>