<svg width="512" height="512" xmlns="http://www.w3.org/2000/svg">

 <g>
  <title>background</title>
  <rect fill="none" id="canvas_background" height="402" width="582" y="-1" x="-1"/>
 </g>
 <g>
  <title>Layer 1</title>
  <ellipse id="svg_2" ry="43.3" rx="44.3" fill="#094d84" cy="412.7" cx="242.5"/>
  <ellipse id="svg_3" ry="43.3" rx="44.3" fill="#094d84" cy="412.7" cx="379.9"/>
  <path id="svg_4" fill="#094d84" d="m466.9,113l-306.8,0c-0.7,0 -1.4,0.2 -2.1,0.2l-7.8,-39c-1.4,-10.3 -8.5,-16.5 -21.8,-18.3l-111.9,0c-25.5,0.1 -26.2,62.9 32.1,54.8l56.4,-0.5l10,46.9c0,0 0,0.1 0,0.1l30.4,150.2c0,24.3 20.3,44.2 45.1,44.2l246,0c24.8,0 45.1,-19.9 45.1,-44.2l30.4,-150.2c0,-24.3 -20.3,-44.2 -45.1,-44.2zm-263.6,194.5l-1,0.1c-8.3,1 -16.1,-4.7 -17.2,-12.6l-17.4,-118.3c-1.2,-8.1 4.9,-15.6 13.5,-16.6l1,-0.1c8.3,-1 16.1,4.7 17.2,12.6l17.4,118.3c1.2,8.1 -4.9,15.6 -13.5,16.6zm78.6,0.4l-1.1,0.1c-8.4,0.6 -15.9,-5.5 -16.5,-13.5l-9.9,-118.9c-0.7,-8.1 5.8,-15.3 14.4,-15.8l1.1,-0.1c8.4,-0.6 15.9,5.5 16.5,13.5l9.9,118.9c0.7,8.2 -5.8,15.3 -14.4,15.8zm91.1,-14.2c-0.1,8.1 -7.2,14.6 -15.7,14.5l-1.1,0c-8.5,-0.1 -15.4,-6.8 -15.3,-14.9l2,-119.2c0.1,-8.1 7.2,-14.6 15.7,-14.5l1.1,0c8.5,0.1 15.4,6.8 15.3,14.9l-2,119.2zm90.7,-116.4l-20.3,117.9c-1.3,7.8 -9.2,13.3 -17.5,12.2l-1,-0.1c-8.6,-1.2 -14.5,-8.8 -13.1,-16.9l20.2,-117.9c1.3,-7.8 9.2,-13.3 17.5,-12.2l1,0.1c8.7,1.2 14.6,8.8 13.2,16.9z"/>
 </g>
</svg>