<svg width="48" height="48" xmlns="http://www.w3.org/2000/svg">

 <g>
  <title>background</title>
  <rect fill="none" id="canvas_background" height="402" width="582" y="-1" x="-1"/>
 </g>
 <g>
  <title>Layer 1</title>
  <path id="svg_1" fill="none" d="m0,0l48,0l0,48l-48,0l0,-48zm36.62,60l-5.52,-38l5.52,38z"/>
  <path fill="#094d84" id="svg_2" d="m22,18l4,0l0,-6l6,0l0,-4l-6,0l0,-6l-4,0l0,6l-6,0l0,4l6,0l0,6zm-8,18c-2.21,0 -3.98,1.79 -3.98,4s1.77,4 3.98,4s4,-1.79 4,-4s-1.79,-4 -4,-4zm20,0c-2.21,0 -3.98,1.79 -3.98,4s1.77,4 3.98,4s4,-1.79 4,-4s-1.79,-4 -4,-4zm-19.65,-6.5c0,-0.09 0.02,-0.17 0.06,-0.24l1.8,-3.26l14.9,0c1.5,0 2.81,-0.83 3.5,-2.06l7.72,-14.02l-3.5,-1.92l-0.01,0l-2.21,4l-5.51,10l-14.03,0l-0.26,-0.54l-4.49,-9.46l-1.9,-4l-1.89,-4l-6.53,0l0,4l4,0l7.2,15.17l-2.71,4.9c-0.31,0.58 -0.49,1.23 -0.49,1.93c0,2.21 1.79,4 4,4l24,0l0,-4l-23.15,0c-0.28,0 -0.5,-0.22 -0.5,-0.5z"/>
 </g>
</svg>