<svg width="32" height="32" xmlns="http://www.w3.org/2000/svg">

 <g>
  <title>background</title>
  <rect fill="none" id="canvas_background" height="402" width="582" y="-1" x="-1"/>
 </g>
 <g>
  <title>Layer 1</title>
  <path fill="#094d84" id="svg_1" d="m16,2c-6.6,0 -12,5.4 -12,12l0,3c0,2.8 2.2,5 5,5c0.6,0 1,-0.4 1,-1l0,-8c0,-0.6 -0.4,-1 -1,-1c-1.1,0 -2.1,0.4 -2.9,1c0.5,-5 4.8,-9 9.9,-9s9.4,3.9 9.9,9c-0.8,-0.6 -1.8,-1 -2.9,-1c-0.6,0 -1,0.4 -1,1l0,8c0,0.6 0.4,1 1,1c0.6,0 1.3,-0.1 1.8,-0.4c-1.1,2 -2.8,3.6 -4.9,4.5c-0.2,-1.2 -1.2,-2.2 -2.5,-2.2c-1.3,0 -2.4,1.1 -2.4,2.4c0,0.7 0.3,1.4 0.9,1.9c0.5,0.4 1,0.6 1.6,0.6c0.1,0 0.3,0 0.4,0c5.7,-0.8 10.1,-5.9 10.1,-11.8l0,-3c0,-6.6 -5.4,-12 -12,-12z"/>
 </g>
</svg>