<svg width="32" height="32" xmlns="http://www.w3.org/2000/svg">

 <g>
  <title>background</title>
  <rect fill="none" id="canvas_background" height="402" width="582" y="-1" x="-1"/>
 </g>
 <g>
  <title>Layer 1</title>
  <polygon fill="#19222b" id="svg_3" points="13.83,19.259 19.262,16 13.83,12.741    "/>
  <path fill="#2c3e50" id="svg_5" d="m16,0c-8.836,0 -16,7.163 -16,16s7.164,16 16,16s16,-7.164 16,-16s-7.164,-16 -16,-16zm8.688,16.701c0,1.5 -0.174,3 -0.174,3s-0.17,1.278 -0.69,1.839c-0.661,0.738 -1.401,0.742 -1.741,0.786c-2.432,0.186 -6.083,0.192 -6.083,0.192s-4.518,-0.044 -5.908,-0.186c-0.387,-0.077 -1.254,-0.055 -1.916,-0.792c-0.521,-0.562 -0.69,-1.839 -0.69,-1.839s-0.174,-1.499 -0.174,-3l0,-1.406c0,-1.5 0.174,-2.999 0.174,-2.999s0.17,-1.278 0.69,-1.841c0.661,-0.739 1.401,-0.743 1.741,-0.785c2.431,-0.188 6.079,-0.188 6.079,-0.188l0.008,0c0,0 3.648,0 6.079,0.188c0.339,0.042 1.08,0.046 1.741,0.784c0.521,0.563 0.69,1.841 0.69,1.841s0.174,1.5 0.174,3l0,1.406z"/>
 </g>
</svg>